<?xml version="1.0" encoding="UTF-8" standalone="no"?>
<!DOCTYPE svg PUBLIC "-//W3C//DTD SVG 1.1//EN"
 "http://www.w3.org/Graphics/SVG/1.1/DTD/svg11.dtd">
<!-- Generated by graphviz version 9.0.0 (20230911.1827)
 -->
<!-- Pages: 1 -->
<svg width="510pt" height="524pt"
 viewBox="0.00 0.00 510.00 524.00" xmlns="http://www.w3.org/2000/svg" xmlns:xlink="http://www.w3.org/1999/xlink">
<g id="graph0" class="graph" transform="scale(1 1) rotate(0) translate(4 520)">
<polygon fill="white" stroke="none" points="-4,4 -4,-520 506,-520 506,4 -4,4"/>
<!-- 2283802772080 -->
<g id="node1" class="node">
<title>2283802772080</title>
<polygon fill="#caff70" stroke="black" points="294,-32 236,-32 236,0 294,0 294,-32"/>
<text text-anchor="middle" x="265" y="-6.5" font-family="monospace" font-size="10.00"> (1, 1)</text>
</g>
<!-- 2283802592880 -->
<g id="node2" class="node">
<title>2283802592880</title>
<polygon fill="lightgrey" stroke="black" points="315,-88 215,-88 215,-68 315,-68 315,-88"/>
<text text-anchor="middle" x="265" y="-74.5" font-family="monospace" font-size="10.00">AddmmBackward0</text>
</g>
<!-- 2283802592880&#45;&gt;2283802772080 -->
<g id="edge19" class="edge">
<title>2283802592880&#45;&gt;2283802772080</title>
<path fill="none" stroke="black" d="M265,-67.62C265,-61.1 265,-52.05 265,-43.4"/>
<polygon fill="black" stroke="black" points="268.5,-43.65 265,-33.65 261.5,-43.65 268.5,-43.65"/>
</g>
<!-- 2283802592688 -->
<g id="node3" class="node">
<title>2283802592688</title>
<polygon fill="lightgrey" stroke="black" points="197,-144 97,-144 97,-124 197,-124 197,-144"/>
<text text-anchor="middle" x="147" y="-130.5" font-family="monospace" font-size="10.00">AccumulateGrad</text>
</g>
<!-- 2283802592688&#45;&gt;2283802592880 -->
<g id="edge1" class="edge">
<title>2283802592688&#45;&gt;2283802592880</title>
<path fill="none" stroke="black" d="M167.55,-123.59C185.88,-115.21 212.99,-102.8 233.96,-93.21"/>
<polygon fill="black" stroke="black" points="235.27,-96.45 242.91,-89.11 232.36,-90.09 235.27,-96.45"/>
</g>
<!-- 2283802772000 -->
<g id="node4" class="node">
<title>2283802772000</title>
<polygon fill="lightblue" stroke="black" points="176,-212 118,-212 118,-180 176,-180 176,-212"/>
<text text-anchor="middle" x="147" y="-198.5" font-family="monospace" font-size="10.00">fc.bias</text>
<text text-anchor="middle" x="147" y="-186.5" font-family="monospace" font-size="10.00"> (1)</text>
</g>
<!-- 2283802772000&#45;&gt;2283802592688 -->
<g id="edge2" class="edge">
<title>2283802772000&#45;&gt;2283802592688</title>
<path fill="none" stroke="black" d="M147,-179.55C147,-172.34 147,-163.66 147,-155.88"/>
<polygon fill="black" stroke="black" points="150.5,-155.92 147,-145.92 143.5,-155.92 150.5,-155.92"/>
</g>
<!-- 2283802595280 -->
<g id="node5" class="node">
<title>2283802595280</title>
<polygon fill="lightgrey" stroke="black" points="315,-144 215,-144 215,-124 315,-124 315,-144"/>
<text text-anchor="middle" x="265" y="-130.5" font-family="monospace" font-size="10.00">SliceBackward0</text>
</g>
<!-- 2283802595280&#45;&gt;2283802592880 -->
<g id="edge3" class="edge">
<title>2283802595280&#45;&gt;2283802592880</title>
<path fill="none" stroke="black" d="M265,-123.59C265,-117.01 265,-107.96 265,-99.73"/>
<polygon fill="black" stroke="black" points="268.5,-99.81 265,-89.81 261.5,-99.81 268.5,-99.81"/>
</g>
<!-- 2283802593312 -->
<g id="node6" class="node">
<title>2283802593312</title>
<polygon fill="lightgrey" stroke="black" points="314,-206 208,-206 208,-186 314,-186 314,-206"/>
<text text-anchor="middle" x="261" y="-192.5" font-family="monospace" font-size="10.00">SelectBackward0</text>
</g>
<!-- 2283802593312&#45;&gt;2283802595280 -->
<g id="edge4" class="edge">
<title>2283802593312&#45;&gt;2283802595280</title>
<path fill="none" stroke="black" d="M261.62,-185.62C262.16,-177.56 262.96,-165.65 263.64,-155.41"/>
<polygon fill="black" stroke="black" points="267.12,-155.83 264.29,-145.62 260.13,-155.37 267.12,-155.83"/>
</g>
<!-- 2283802592112 -->
<g id="node7" class="node">
<title>2283802592112</title>
<polygon fill="lightgrey" stroke="black" points="311,-274 211,-274 211,-254 311,-254 311,-274"/>
<text text-anchor="middle" x="261" y="-260.5" font-family="monospace" font-size="10.00">SliceBackward0</text>
</g>
<!-- 2283802592112&#45;&gt;2283802593312 -->
<g id="edge5" class="edge">
<title>2283802592112&#45;&gt;2283802593312</title>
<path fill="none" stroke="black" d="M261,-253.54C261,-244.23 261,-229.7 261,-217.7"/>
<polygon fill="black" stroke="black" points="264.5,-217.95 261,-207.95 257.5,-217.95 264.5,-217.95"/>
</g>
<!-- 2283802593504 -->
<g id="node8" class="node">
<title>2283802593504</title>
<polygon fill="lightgrey" stroke="black" points="323,-336 199,-336 199,-316 323,-316 323,-336"/>
<text text-anchor="middle" x="261" y="-322.5" font-family="monospace" font-size="10.00">TransposeBackward0</text>
</g>
<!-- 2283802593504&#45;&gt;2283802592112 -->
<g id="edge6" class="edge">
<title>2283802593504&#45;&gt;2283802592112</title>
<path fill="none" stroke="black" d="M261,-315.62C261,-307.56 261,-295.65 261,-285.41"/>
<polygon fill="black" stroke="black" points="264.5,-285.63 261,-275.63 257.5,-285.63 264.5,-285.63"/>
</g>
<!-- 2283802592928 -->
<g id="node9" class="node">
<title>2283802592928</title>
<polygon fill="lightgrey" stroke="black" points="338,-392 184,-392 184,-372 338,-372 338,-392"/>
<text text-anchor="middle" x="261" y="-378.5" font-family="monospace" font-size="10.00">MkldnnRnnLayerBackward0</text>
</g>
<!-- 2283802592928&#45;&gt;2283802593504 -->
<g id="edge7" class="edge">
<title>2283802592928&#45;&gt;2283802593504</title>
<path fill="none" stroke="black" d="M261,-371.59C261,-365.01 261,-355.96 261,-347.73"/>
<polygon fill="black" stroke="black" points="264.5,-347.81 261,-337.81 257.5,-347.81 264.5,-347.81"/>
</g>
<!-- 2283802593408 -->
<g id="node10" class="node">
<title>2283802593408</title>
<polygon fill="lightgrey" stroke="black" points="124,-448 24,-448 24,-428 124,-428 124,-448"/>
<text text-anchor="middle" x="74" y="-434.5" font-family="monospace" font-size="10.00">AccumulateGrad</text>
</g>
<!-- 2283802593408&#45;&gt;2283802592928 -->
<g id="edge8" class="edge">
<title>2283802593408&#45;&gt;2283802592928</title>
<path fill="none" stroke="black" d="M106.57,-427.59C137.22,-418.74 183.34,-405.43 217.2,-395.65"/>
<polygon fill="black" stroke="black" points="218.08,-399.04 226.72,-392.9 216.14,-392.31 218.08,-399.04"/>
</g>
<!-- 2283656326896 -->
<g id="node11" class="node">
<title>2283656326896</title>
<polygon fill="lightblue" stroke="black" points="118,-516 0,-516 0,-484 118,-484 118,-516"/>
<text text-anchor="middle" x="59" y="-502.5" font-family="monospace" font-size="10.00">lstm.weight_ih_l0</text>
<text text-anchor="middle" x="59" y="-490.5" font-family="monospace" font-size="10.00"> (200, 1)</text>
</g>
<!-- 2283656326896&#45;&gt;2283802593408 -->
<g id="edge9" class="edge">
<title>2283656326896&#45;&gt;2283802593408</title>
<path fill="none" stroke="black" d="M62.86,-483.55C64.71,-476.17 66.94,-467.24 68.92,-459.32"/>
<polygon fill="black" stroke="black" points="72.25,-460.43 71.28,-449.88 65.46,-458.73 72.25,-460.43"/>
</g>
<!-- 2283802593744 -->
<g id="node12" class="node">
<title>2283802593744</title>
<polygon fill="lightgrey" stroke="black" points="251,-448 151,-448 151,-428 251,-428 251,-448"/>
<text text-anchor="middle" x="201" y="-434.5" font-family="monospace" font-size="10.00">AccumulateGrad</text>
</g>
<!-- 2283802593744&#45;&gt;2283802592928 -->
<g id="edge10" class="edge">
<title>2283802593744&#45;&gt;2283802592928</title>
<path fill="none" stroke="black" d="M211.45,-427.59C219.97,-419.93 232.21,-408.91 242.39,-399.75"/>
<polygon fill="black" stroke="black" points="244.45,-402.6 249.54,-393.31 239.77,-397.4 244.45,-402.6"/>
</g>
<!-- 2283656326816 -->
<g id="node13" class="node">
<title>2283656326816</title>
<polygon fill="lightblue" stroke="black" points="254,-516 136,-516 136,-484 254,-484 254,-516"/>
<text text-anchor="middle" x="195" y="-502.5" font-family="monospace" font-size="10.00">lstm.weight_hh_l0</text>
<text text-anchor="middle" x="195" y="-490.5" font-family="monospace" font-size="10.00"> (200, 50)</text>
</g>
<!-- 2283656326816&#45;&gt;2283802593744 -->
<g id="edge11" class="edge">
<title>2283656326816&#45;&gt;2283802593744</title>
<path fill="none" stroke="black" d="M196.55,-483.55C197.27,-476.26 198.15,-467.45 198.94,-459.6"/>
<polygon fill="black" stroke="black" points="202.4,-460.21 199.91,-449.91 195.43,-459.52 202.4,-460.21"/>
</g>
<!-- 2283802593648 -->
<g id="node14" class="node">
<title>2283802593648</title>
<polygon fill="lightgrey" stroke="black" points="372,-448 272,-448 272,-428 372,-428 372,-448"/>
<text text-anchor="middle" x="322" y="-434.5" font-family="monospace" font-size="10.00">AccumulateGrad</text>
</g>
<!-- 2283802593648&#45;&gt;2283802592928 -->
<g id="edge12" class="edge">
<title>2283802593648&#45;&gt;2283802592928</title>
<path fill="none" stroke="black" d="M311.37,-427.59C302.72,-419.93 290.27,-408.91 279.92,-399.75"/>
<polygon fill="black" stroke="black" points="282.44,-397.31 272.64,-393.3 277.8,-402.55 282.44,-397.31"/>
</g>
<!-- 2283656326976 -->
<g id="node15" class="node">
<title>2283656326976</title>
<polygon fill="lightblue" stroke="black" points="378,-516 272,-516 272,-484 378,-484 378,-516"/>
<text text-anchor="middle" x="325" y="-502.5" font-family="monospace" font-size="10.00">lstm.bias_ih_l0</text>
<text text-anchor="middle" x="325" y="-490.5" font-family="monospace" font-size="10.00"> (200)</text>
</g>
<!-- 2283656326976&#45;&gt;2283802593648 -->
<g id="edge13" class="edge">
<title>2283656326976&#45;&gt;2283802593648</title>
<path fill="none" stroke="black" d="M324.23,-483.55C323.87,-476.34 323.43,-467.66 323.04,-459.88"/>
<polygon fill="black" stroke="black" points="326.54,-459.73 322.55,-449.92 319.55,-460.08 326.54,-459.73"/>
</g>
<!-- 2283802594032 -->
<g id="node16" class="node">
<title>2283802594032</title>
<polygon fill="lightgrey" stroke="black" points="494,-448 394,-448 394,-428 494,-428 494,-448"/>
<text text-anchor="middle" x="444" y="-434.5" font-family="monospace" font-size="10.00">AccumulateGrad</text>
</g>
<!-- 2283802594032&#45;&gt;2283802592928 -->
<g id="edge14" class="edge">
<title>2283802594032&#45;&gt;2283802592928</title>
<path fill="none" stroke="black" d="M412.12,-427.59C382.13,-418.74 337,-405.43 303.86,-395.65"/>
<polygon fill="black" stroke="black" points="305.16,-392.38 294.58,-392.91 303.18,-399.09 305.16,-392.38"/>
</g>
<!-- 2283656327056 -->
<g id="node17" class="node">
<title>2283656327056</title>
<polygon fill="lightblue" stroke="black" points="502,-516 396,-516 396,-484 502,-484 502,-516"/>
<text text-anchor="middle" x="449" y="-502.5" font-family="monospace" font-size="10.00">lstm.bias_hh_l0</text>
<text text-anchor="middle" x="449" y="-490.5" font-family="monospace" font-size="10.00"> (200)</text>
</g>
<!-- 2283656327056&#45;&gt;2283802594032 -->
<g id="edge15" class="edge">
<title>2283656327056&#45;&gt;2283802594032</title>
<path fill="none" stroke="black" d="M447.71,-483.55C447.1,-476.26 446.37,-467.45 445.72,-459.6"/>
<polygon fill="black" stroke="black" points="449.23,-459.59 444.91,-449.92 442.25,-460.17 449.23,-459.59"/>
</g>
<!-- 2283802594992 -->
<g id="node18" class="node">
<title>2283802594992</title>
<polygon fill="lightgrey" stroke="black" points="413,-144 337,-144 337,-124 413,-124 413,-144"/>
<text text-anchor="middle" x="375" y="-130.5" font-family="monospace" font-size="10.00">TBackward0</text>
</g>
<!-- 2283802594992&#45;&gt;2283802592880 -->
<g id="edge16" class="edge">
<title>2283802594992&#45;&gt;2283802592880</title>
<path fill="none" stroke="black" d="M355.84,-123.59C338.91,-115.28 313.95,-103.03 294.48,-93.47"/>
<polygon fill="black" stroke="black" points="296.19,-90.41 285.67,-89.15 293.1,-96.7 296.19,-90.41"/>
</g>
<!-- 2283802593024 -->
<g id="node19" class="node">
<title>2283802593024</title>
<polygon fill="lightgrey" stroke="black" points="432,-206 332,-206 332,-186 432,-186 432,-206"/>
<text text-anchor="middle" x="382" y="-192.5" font-family="monospace" font-size="10.00">AccumulateGrad</text>
</g>
<!-- 2283802593024&#45;&gt;2283802594992 -->
<g id="edge17" class="edge">
<title>2283802593024&#45;&gt;2283802594992</title>
<path fill="none" stroke="black" d="M380.91,-185.62C379.97,-177.56 378.58,-165.65 377.38,-155.41"/>
<polygon fill="black" stroke="black" points="380.87,-155.14 376.24,-145.62 373.92,-155.95 380.87,-155.14"/>
</g>
<!-- 2283802771920 -->
<g id="node20" class="node">
<title>2283802771920</title>
<polygon fill="lightblue" stroke="black" points="417,-280 347,-280 347,-248 417,-248 417,-280"/>
<text text-anchor="middle" x="382" y="-266.5" font-family="monospace" font-size="10.00">fc.weight</text>
<text text-anchor="middle" x="382" y="-254.5" font-family="monospace" font-size="10.00"> (1, 50)</text>
</g>
<!-- 2283802771920&#45;&gt;2283802593024 -->
<g id="edge18" class="edge">
<title>2283802771920&#45;&gt;2283802593024</title>
<path fill="none" stroke="black" d="M382,-247.69C382,-238.8 382,-227.46 382,-217.77"/>
<polygon fill="black" stroke="black" points="385.5,-217.83 382,-207.83 378.5,-217.83 385.5,-217.83"/>
</g>
</g>
</svg>
